<svg xmlns="http://www.w3.org/2000/svg" width="500" height="500" fill="none" viewBox="0 0 500 500" id="beautiful-lady-applying-face-powder-on-face">
  <path fill="#347E98" fill-rule="evenodd" d="M211.09 93.331C211.09 93.331 208.446 86.732 208.747 82.844C209.049 78.956 212.296 73.72 212.296 73.72C212.296 73.72 198.223 77.69 196.023 84.203C196.023 84.203 195.988 76.882 199.892 73.583C203.796 70.284 211.285 69.773 211.285 69.773C211.285 69.773 208.162 62.745 208.481 58.673L216.236 62.174C216.236 62.174 211.249 47.974 216.431 39.888C221.595 31.802 226.582 30.91 226.582 30.91C226.582 30.91 221.329 41.093 222.145 46.751C222.961 52.409 222.961 54.711 222.961 54.711C222.961 54.711 231.018 42.261 244.753 35.768C258.488 29.275 275.879 32.259 275.879 32.259C275.879 32.259 271.655 24.736 271.868 16.308C272.099 7.87998 280.191 1.40198 280.191 1.40198C280.191 1.40198 275.932 12.03 278.345 19.555C278.345 19.555 294.955 -2.06102 318.54 4.62598C342.125 11.313 348.903 44.158 332.453 62.319C332.453 62.319 343.402 61.159 346.472 56.8C346.472 56.8 346.117 71.474 329.01 66.598C329.01 66.598 336.499 87.564 332.879 102.034C329.277 116.504 323.438 129.852 323.438 129.852L299.286 162.996L211.088 93.33L211.09 93.331Z" clip-rule="evenodd"></path>
  <path fill="#F3C088" fill-rule="evenodd" d="M227.009 306.468C227.435 305.572 228.021 305.023 228.695 305.031C230.274 305.045 236.432 309.581 240.052 312.353C239.324 312.365 238.899 312.381 238.899 312.381C238.899 312.381 232.528 306.331 228.269 306.259C227.754 306.25 227.346 306.326 227.009 306.468C226.015 308.523 225.856 312.411 227.222 315.673C229.156 320.36 241.401 328.037 241.401 328.037C241.401 328.037 212.564 322.66 204.241 323.15C196.557 323.603 187.932 318.314 182.963 319.02L182.342 313.522L182.076 310.784C182.076 310.784 173.469 307.897 168.802 300.403C164.117 292.911 162.183 284.089 162.183 284.089C162.183 284.089 160.905 271.001 163.407 260.939C165.891 250.879 170.062 248.698 170.062 248.698C170.062 248.698 178.491 233.296 184.454 224.752C190.417 216.207 204.809 204 210.665 199.162C216.521 194.326 217.462 190.222 215.669 188.86C213.877 187.497 192.865 200.709 192.865 200.709C192.865 200.709 190.505 194.219 186.263 193.58C186.263 193.58 184.471 185.403 178.845 185.371C173.219 185.337 159.236 195.992 158.668 195.997C158.1 196.002 159.662 189.055 160.319 186.874C160.975 184.693 168.251 178.766 168.251 178.766C168.251 178.766 184.169 176.384 185.678 173.183C187.204 169.98 182.484 169.817 181.082 169.598C179.68 169.38 174.303 169.114 174.303 169.114C174.303 169.114 168.34 165.219 165.572 165.489C162.804 165.757 149.689 179.833 148.536 181.16C147.383 182.486 141.793 197.957 140.603 200.649C139.414 203.341 139.503 207.691 139.503 207.691C139.503 207.691 142.839 242.242 142.023 246.789C141.207 251.336 125.785 289.864 123.798 295.062C121.811 300.262 96.505 353.427 104.526 375.214C112.529 397.003 122.041 402.974 132.263 397.931C142.485 392.886 175.652 350.696 175.652 350.696C175.652 350.696 182.165 332.473 182.254 329.665C187.099 332.621 194.765 334.18 194.765 334.18C194.765 334.18 202.307 342.423 207.276 344.606C207.276 344.606 208.891 349.669 215.51 354.373C222.111 359.079 241.366 365.289 254.285 366.875C267.204 368.461 272.51 367.934 276.308 370.831C280.123 373.725 302.128 399.979 318.774 412.671C335.42 425.361 353.716 441.863 373.059 434.603C392.402 427.343 398.613 424.342 395.029 402.389C391.444 380.435 378.49 312.896 377.585 298.475C376.68 284.053 373.432 257.118 348.002 246.298C322.572 235.478 300.407 231.537 296.006 212.801C291.587 194.067 294.941 180.684 296.13 177.49C296.13 177.49 305.039 165.689 306.369 161.849C306.369 161.849 319.253 164.781 324.523 154.871C329.794 144.961 329.616 132.021 322.127 127.974C314.656 123.926 310.574 132.774 309.598 142.925L306.209 120.964C306.209 120.964 308.853 115.904 306.262 109.509C303.689 103.114 297.566 92.935 297.566 92.935L303.405 93.345L282.66 74.418L273.858 75.464L273.503 72.7L250.096 78.031L245.145 78.363L238.171 81.874L228.34 76.983L231.144 82.502C231.144 82.502 218.757 78.576 216.575 76.415C216.575 76.415 212.05 86.699 210.896 98.164C209.76 109.629 214.126 154.291 214.126 154.291C214.126 154.291 216.273 154.449 218.208 157.29C220.142 160.131 219.823 162.805 219.823 162.805C219.823 162.805 222.467 163.226 221.953 166.844C221.438 170.461 218.599 172.015 218.599 172.015C218.599 172.015 229.442 186.544 238.705 192.819C247.951 199.094 255.44 200.136 255.44 200.136C255.44 200.136 256.469 208.264 256.203 213.181C256.203 213.181 249.513 225.348 240.87 230.199C232.21 235.051 202.077 245.091 195.511 251.084C195.511 251.084 207.259 263.535 208.608 277.321C209.957 291.106 207.49 304.409 200.995 310.907L226.07 312.101C226.07 312.101 224.473 307.515 227.011 306.47L227.009 306.468ZM240.052 312.353C241.667 313.574 242.767 314.454 242.767 314.454C242.767 314.454 257.709 320.979 266.919 325.538C276.129 330.097 293.68 346.269 293.68 346.269L335.046 364.544L336.927 331.043C336.927 331.043 317.797 318.459 307.096 315.469C296.395 312.477 260.442 317.529 260.442 317.529C260.442 317.529 260.531 315.689 256.325 313.804C252.865 312.258 243.37 312.29 240.052 312.352V312.353ZM178.544 322.284C178.118 322.848 177.816 323.48 177.728 324.172C177.586 325.501 178.314 326.318 179.219 326.96C178.154 325.402 177.94 323.727 178.544 322.284Z" clip-rule="evenodd"></path>
  <path fill="#988B34" fill-rule="evenodd" d="M200.443 156.018C200.443 156.018 197.284 157.539 197.16 159.507 197.036 161.475 196.699 162.139 195.847 163.088 194.978 164.039 194.321 165.587 196.007 167.8 197.693 170.013 200.248 170.794 200.248 170.794 200.248 170.794 199.414 175.598 201.597 177.222 203.78 178.844 206.938 175.845 206.938 175.845 206.938 175.845 209.139 177.178 211.942 176.326 214.764 175.474 215.704 173.274 215.704 173.274 215.704 173.274 221.258 170.577 221.667 167.31 222.093 164.043 219.502 161.59 219.502 161.59 219.502 161.59 218.668 156.445 217.124 155.476 215.58 154.507 213.007 154.326 213.007 154.326 213.007 154.326 210.327 150.436 207.399 150.525 204.453 150.612 200.443 156.018 200.443 156.018ZM164.454 255.679C164.454 255.679 160.568 266.453 161.863 278.639 163.176 290.825 167.151 299.792 172.848 305.306 178.544 310.821 182.679 311.595 182.679 311.595 182.679 311.595 181.579 313.614 182.697 318.291 182.697 318.291 187.027 318.515 192.848 320.875 198.669 323.237 212.102 323.897 220.425 324.88 228.748 325.865 241.028 328.687 241.028 328.687 241.028 328.687 233.06 322.153 230.54 319.431 228.002 316.709 226.778 312.196 226.778 312.196L200.958 311.577C200.958 311.577 209.937 300.921 208.411 285.648 206.885 270.376 204.542 260.31 197.497 253.157 190.469 246.002 181.046 246.339 181.046 246.339L170.469 249.006 164.453 255.68 164.454 255.679ZM240.318 312.095C240.318 312.095 244.559 315.834 249.28 317.967 254 320.098 259.094 322.519 259.094 322.519 259.094 322.519 261.17 319.593 259.981 316.936 258.792 314.281 248.517 312.352 248.517 312.352L240.318 312.095Z" clip-rule="evenodd"></path>
  <path fill="#fff" fill-rule="evenodd" d="M174.747 350.846C174.747 350.846 169.21 391.594 169.689 408.272C170.15 424.95 172.315 497.068 172.315 497.068C172.315 497.068 350.379 501.384 352.153 496.944C353.945 492.504 353.005 435.049 353.005 435.049C353.005 435.049 334.797 427.363 321.169 414.398C307.54 401.433 279.927 374.903 275.597 370.753C271.267 366.606 244.896 368.174 231.871 361.926C218.846 355.679 209.884 350.363 208.358 348.444C206.832 346.526 206.228 344.126 206.228 344.126L193.664 333.037L182.484 329.085C182.484 329.085 179.29 343.725 174.747 350.845V350.846ZM259.324 322.319C259.324 322.319 271.764 327.183 278.082 332.026C284.417 336.869 292.048 346.798 292.048 346.798L334.23 364.576L337.282 330.926C337.282 330.926 311.479 315.979 307.114 315.054C302.731 314.131 260.673 316.69 260.673 316.69L259.324 322.319ZM162.573 190.707L195.226 166.982L200.284 171.064L200.515 176.067L182.769 186.486C182.769 186.486 176.416 184.688 171.287 188.28C166.141 191.872 162.201 192.64 161.793 193.201C161.403 193.76 162.574 190.708 162.574 190.708L162.573 190.707Z" clip-rule="evenodd"></path>
  <path fill="#000" fill-rule="evenodd" d="M215.351 75.542C215.351 75.542 213.135 79.824 211.525 86.577 210.73 89.909 210.134 93.849 209.939 98.139 209.698 103.709 210.092 114.971 210.665 125.9 210.919 130.747 211.169 135.531 211.485 139.714 212.09 147.695 212.75 153.498 212.75 153.498 212.789 154.062 213.281 154.49 213.847 154.449 214.413 154.408 214.839 153.917 214.798 153.351 214.798 153.351 214.653 148.936 214.376 142.525 214.314 141.072 214.239 139.517 214.151 137.888 213.761 130.797 213.232 122.303 212.903 114.722 212.61 107.926 212.436 101.87 212.569 98.246 212.714 94.123 213.318 90.347 213.982 87.123 215.327 80.6 217.096 76.358 217.096 76.358 217.321 75.877 217.114 75.304 216.631 75.078 216.15 74.853 215.576 75.061 215.351 75.542ZM218.097 172.827C218.097 172.827 219.652 175.452 222.569 179.065 223.534 180.263 224.658 181.562 225.923 182.911 228.542 185.704 231.776 188.693 235.476 191.406 239.46 194.32 243.666 196.756 247.589 198.425 250.978 199.866 254.169 200.732 256.849 200.881 259.981 201.051 264.201 199.841 268.354 198.065 270.489 197.151 272.611 196.102 274.547 195.045 279.519 192.33 283.31 189.654 283.31 189.654 283.786 189.345 283.92 188.708 283.612 188.233 283.303 187.759 282.666 187.623 282.19 187.931 282.19 187.931 278.297 190.245 273.329 192.703 271.414 193.651 269.345 194.63 267.269 195.491 263.537 197.038 259.801 198.251 256.997 198.1 254.584 197.976 251.716 197.177 248.656 195.898 244.896 194.324 240.862 192.021 237.034 189.261 233.444 186.681 230.33 183.804 227.751 181.163 226.498 179.88 225.371 178.65 224.381 177.532 221.41 174.176 219.712 171.782 219.712 171.782 219.423 171.337 218.826 171.209 218.381 171.498 217.936 171.785 217.808 172.382 218.095 172.829L218.097 172.827Z" clip-rule="evenodd"></path>
  <path fill="#000" fill-rule="evenodd" d="M253.691 199.737C253.691 199.737 253.863 201.329 254.14 203.897 254.408 206.403 254.809 209.824 254.834 213.641 254.852 216.28 254.676 219.098 254.332 221.934 254.265 222.481 254.202 223.029 254.137 223.577 253.986 224.862 253.839 226.138 253.581 227.407 253.416 227.975 253.746 228.571 254.316 228.734 254.886 228.897 255.48 228.569 255.643 227.999 256.129 226.709 256.555 225.405 256.876 224.066 257.014 223.493 257.126 222.916 257.217 222.336 257.686 219.364 257.76 216.379 257.7 213.6 257.617 209.639 257.24 206.072 256.744 203.506 256.231 200.855 255.649 199.27 255.649 199.27 255.521 198.731 254.978 198.395 254.437 198.525 253.898 198.653 253.564 199.196 253.692 199.737H253.691ZM244.302 80.1649C244.616 80.6619 245.218 80.918 245.809 80.776L270.629 74.8C270.125 75.146 269.901 75.785 270.09 76.375 270.291 77.003 270.903 77.405 271.558 77.34L281.432 76.3629C281.544 76.7229 281.801 77.0299 282.158 77.1989 284.197 78.1669 287.441 80.848 290.758 83.835 293.675 86.464 296.637 89.338 298.896 91.584L297.002 90.971C296.427 90.785 295.801 90.997 295.456 91.493 295.112 91.989 295.135 92.652 295.511 93.123 295.511 93.123 298.146 96.423 300.847 101.139 302.32 103.713 303.816 106.709 304.909 109.823 305.697 112.073 306.055 113.89 306.146 115.346 306.35 118.704 305.099 119.812 305.099 119.812 304.705 120.096 304.496 120.57 304.551 121.052L308.058 151.619C308.136 152.306 308.731 152.815 309.421 152.787 310.111 152.759 310.663 152.201 310.685 151.511 310.685 151.511 310.907 143.944 312.5 137.172 313.291 133.808 314.392 130.629 316.051 128.814 317.203 127.552 318.809 127.45 320.369 128.18 322.438 129.148 324.41 131.444 325.608 134.656 327.029 138.469 327.333 143.55 325.423 149.392 323.776 154.476 321.258 157.408 318.568 159.023 313.088 162.313 307.024 160.169 307.024 160.169 306.744 160.068 306.435 160.084 306.167 160.21 305.899 160.338 305.691 160.567 305.592 160.847 305.001 162.54 303.106 165.454 300.964 168.474 297.177 173.817 292.595 179.455 292.595 179.455 292.258 179.865 292.317 180.472 292.726 180.809 293.136 181.148 293.743 181.089 294.08 180.679 294.08 180.679 299.975 173.623 304.037 167.806 305.423 165.822 306.592 163.969 307.276 162.569 309.455 163.119 314.806 163.998 319.787 161.075 322.884 159.258 325.861 155.973 327.797 150.172 330.507 141.962 329.19 135.089 326.514 130.693 323.08 125.05 317.43 123.493 314.147 127.069 312.245 129.14 310.88 132.727 309.966 136.572 309.732 137.556 309.526 138.556 309.345 139.549L307.292 121.395C307.903 120.661 308.76 119.171 308.854 116.521 308.918 114.685 308.606 112.21 307.461 108.93 306.318 105.654 304.753 102.499 303.209 99.79 302.123 97.89 301.049 96.2099 300.137 94.8629L303.393 95.921C303.991 96.115 304.644 95.8779 304.978 95.3449 305.312 94.8129 305.241 94.122 304.806 93.669 304.806 93.669 298.614 87.212 292.604 81.788 290.372 79.775 288.158 77.908 286.277 76.539L291.141 75.39C291.851 75.222 292.309 74.5319 292.19 73.8109 292.069 73.0909 291.411 72.587 290.685 72.658L277.778 73.9229 280.504 72.364C281.107 72.018 281.367 71.28 281.109 70.633 280.852 69.986 280.158 69.626 279.482 69.789L256.485 75.329 264.242 71.339C264.902 71 265.172 70.197 264.851 69.528 264.53 68.859 263.735 68.5679 263.057 68.8709 263.057 68.8709 245.538 76.832 239.412 79.616 239.912 76.993 241.016 72.351 243.213 67.379 245.087 63.134 247.756 58.644 251.539 54.976 251.949 54.584 251.963 53.933 251.571 53.524 251.179 53.114 250.529 53.1 250.119 53.492 246.078 57.31 243.194 62.004 241.159 66.456 237.534 74.382 236.609 81.534 236.609 81.534 236.554 81.974 236.742 82.4089 237.099 82.6729 237.456 82.9369 237.926 82.987 238.331 82.806L244.304 80.163 244.302 80.1649Z" clip-rule="evenodd"></path>
  <path fill="#000" fill-rule="evenodd" d="M231.678 79.667C232.272 79.927 232.862 80.186 233.426 80.425C235.614 81.351 237.392 82.051 237.392 82.051C237.866 82.291 238.446 82.101 238.686 81.627C238.926 81.153 238.736 80.573 238.262 80.333C238.262 80.333 236.857 79.459 234.958 78.442C234.5 78.196 234.008 77.951 233.505 77.705C231.796 76.873 229.926 76.054 228.465 75.508C227.924 75.313 227.317 75.49 226.966 75.946C226.616 76.402 226.599 77.033 226.927 77.506L228.585 79.945C226.769 79.571 224.422 79.009 222.253 78.254C221.009 77.821 219.813 77.365 218.83 76.785C218.118 76.366 217.496 75.939 217.091 75.395C216.784 74.918 216.149 74.779 215.671 75.085C215.194 75.391 215.055 76.027 215.36 76.504C216.096 77.834 217.543 79.014 219.335 79.979C219.945 80.308 220.602 80.602 221.28 80.866C225.878 82.655 231.386 83.234 231.386 83.234C231.922 83.299 232.447 83.044 232.726 82.582C233.006 82.12 232.989 81.537 232.682 81.093L231.679 79.667H231.678Z" clip-rule="evenodd"></path>
  <path fill="#000" fill-rule="evenodd" d="M212.104 95.943C212.104 95.943 209.628 88.529 210.422 82.07C210.788 79.103 211.842 76.322 214.378 74.749C214.875 74.433 215.084 73.812 214.878 73.259C214.67 72.707 214.106 72.375 213.522 72.463C213.522 72.463 205.387 73.688 199.694 78.021C199.082 78.487 198.498 78.988 197.953 79.525C198.556 78.06 199.447 76.569 200.757 75.259C203.087 72.932 206.746 71.228 212.425 71.185C212.938 71.18 213.403 70.888 213.628 70.429C213.853 69.97 213.8 69.423 213.491 69.015C213.491 69.015 211.91 66.908 210.858 63.943C210.5 62.934 210.201 61.823 210.056 60.661L215.591 63.529C216.107 63.796 216.737 63.71 217.163 63.313C217.589 62.916 217.72 62.294 217.49 61.76C217.49 61.76 213.77 53.099 216.402 44.254C217.442 40.761 219.49 37.249 223.163 34.233C222.311 36.218 221.472 38.696 221.007 41.495C220.352 45.425 220.441 49.979 222.201 54.672C223.928 59.219 225.601 62.641 227.047 65.166C229.766 69.917 231.707 71.572 231.707 71.572C232.131 71.948 232.781 71.909 233.157 71.485C233.533 71.061 233.494 70.411 233.068 70.035C233.068 70.035 231.375 68.461 229.009 64.075C227.673 61.597 226.138 58.244 224.58 53.803C223.075 49.566 223.1 45.482 223.725 41.963C224.882 35.439 228.162 30.831 228.162 30.831C228.542 30.303 228.508 29.583 228.078 29.093C227.65 28.603 226.941 28.473 226.367 28.778C218.915 32.742 215.301 38.14 213.725 43.459C211.869 49.72 212.887 55.894 213.863 59.538L209.242 57.155C208.832 56.943 208.34 56.952 207.938 57.18C207.537 57.408 207.276 57.823 207.246 58.285C207.101 60.624 207.589 62.904 208.289 64.86C208.816 66.332 209.46 67.617 210.019 68.601C204.752 69.091 201.233 71.004 198.869 73.381C193.405 78.878 194.131 87.041 194.131 87.041C194.19 87.702 194.733 88.213 195.395 88.233C196.059 88.253 196.632 87.773 196.73 87.118C197.174 84.085 199.003 81.8 201.257 80.067C204.002 77.956 207.378 76.641 209.949 75.871C208.907 77.612 208.347 79.665 208.132 81.816C207.442 88.729 210.286 96.579 210.286 96.579C210.46 97.081 211.01 97.346 211.512 97.171C212.012 96.996 212.279 96.447 212.103 95.945L212.104 95.943Z" clip-rule="evenodd"></path>
  <path fill="#000" fill-rule="evenodd" d="M224.451 54.686C224.451 54.686 228.852 46.725 239.168 40.416C244.174 37.355 250.563 34.656 258.566 33.485C274.209 31.165 288.551 34.503 300.383 41.164C313.59 48.6 323.671 60.177 328.897 72.683C331.852 79.72 332.413 87.401 331.838 94.711C331.366 100.714 330.127 106.474 328.692 111.443C325.977 120.838 322.603 127.41 322.603 127.41C322.337 127.91 322.527 128.533 323.027 128.8C323.527 129.067 324.15 128.877 324.417 128.376C324.417 128.376 328.082 121.734 331.065 112.156C332.653 107.059 334.055 101.133 334.598 94.941C335.276 87.202 334.6 79.062 331.482 71.602C326.011 58.577 315.503 46.504 301.718 38.787C289.392 31.887 274.451 28.4661 258.184 30.9341C249.797 32.2231 243.087 35.064 237.886 38.356C227.112 45.176 222.75 53.7881 222.75 53.7881C222.502 54.2581 222.683 54.841 223.151 55.089C223.621 55.337 224.203 55.157 224.452 54.688L224.451 54.686Z" clip-rule="evenodd"></path>
  <path fill="#000" fill-rule="evenodd" d="M276.298 31.028C276.298 31.028 272.846 23.534 273.801 15.41 274.193 12.069 275.345 8.61502 277.849 5.55002 277.492 7.00302 277.153 8.72904 276.941 10.648 276.602 13.668 276.57 17.1641 277.243 20.8221 277.35 21.3991 277.83 21.833 278.416 21.88 279.002 21.927 279.545 21.576 279.743 21.024 279.743 21.024 282.446 13.691 292.05 9.00503 296.366 6.89903 302.055 5.33504 309.482 5.16104 320.538 4.89804 327.846 9.68202 332.46 16.3 337.924 24.137 339.674 34.48 339.47 42.105 339.351 46.662 338.214 50.374 336.737 53.305 333.749 59.236 329.381 61.948 329.381 61.948 328.829 62.286 328.582 62.959 328.785 63.574 328.989 64.189 329.587 64.583 330.231 64.526 330.231 64.526 336.256 63.977 341.218 61.844 342.533 61.278 343.77 60.598 344.824 59.798 344.441 61.177 343.61 62.739 341.883 63.985 339.388 65.785 335.177 66.9141 328.13 66.2701 327.567 66.2121 327.062 66.623 327.005 67.187 326.946 67.751 327.358 68.2561 327.921 68.3141 335.749 69.2051 340.444 67.883 343.261 65.936 348.691 62.185 347.589 55.977 347.589 55.977 347.491 55.435 347.06 55.016 346.515 54.933 345.972 54.85 345.434 55.122 345.18 55.61 344.275 57.308 342.31 58.472 340.168 59.361 338.372 60.107 336.431 60.6341 334.731 60.9991 336.204 59.4401 337.856 57.31 339.24 54.566 340.874 51.324 342.136 47.218 342.266 42.177 342.474 34.056 340.555 23.054 334.722 14.718 329.627 7.43805 321.592 2.14202 309.414 2.45602 301.512 2.66202 295.469 4.36505 290.882 6.61905 284.825 9.59505 281.271 13.541 279.328 16.403 279.223 14.461 279.303 12.615 279.486 10.929 280.07 5.52804 281.695 1.76803 281.695 1.76803 281.926 1.24203 281.771.627024 281.321.271024 280.87-.0839759 280.235-.0899529 279.777.257047 274.235 4.52305 272.043 9.97001 271.527 15.165 270.661 23.896 274.562 31.856 274.562 31.856 274.789 32.336 275.364 32.54 275.843 32.311 276.324 32.083 276.528 31.508 276.299 31.028H276.298ZM243.055 52.369C243.055 52.369 244.679 50.063 247.266 46.857 248.551 45.264 250.061 43.442 251.759 41.592 253.55 39.641 255.574 37.693 257.668 35.857 258.078 35.496 258.484 35.133 258.891 34.771 259.856 33.912 260.802 33.062 261.81 32.308 262.289 32.005 262.431 31.369 262.128 30.89 261.825 30.411 261.189 30.269 260.71 30.573 259.363 31.292 258.025 32.082 256.763 33.022 256.025 33.573 255.329 34.187 254.646 34.81 253.618 35.745 252.646 36.7339 251.718 37.7329 249.161 40.4869 246.943 43.321 245.28 45.722 242.959 49.07 241.679 51.533 241.679 51.533 241.45 51.912 241.571 52.408 241.95 52.638 242.328 52.868 242.825 52.747 243.054 52.368L243.055 52.369ZM240.948 76.395C240.948 76.395 242.07 75.77 243.823 74.683 244.643 74.174 245.596 73.576 246.627 72.875 247.324 72.401 248.048 71.877 248.792 71.323 249.821 70.557 250.882 69.7239 251.951 68.8709 252.991 68.0409 254.034 67.187 255.042 66.329 256.094 65.434 257.124 64.555 258.046 63.669 259.53 62.246 260.758 60.86 261.718 59.717 261.97 59.464 261.968 59.054 261.716 58.803 261.462 58.552 261.052 58.553 260.8 58.806 259.845 59.612 258.63 60.49 257.299 61.502 256.547 62.073 255.768 62.683 254.966 63.314 253.264 64.649 251.465 66.06 249.726 67.426 248.512 68.378 247.321 69.299 246.244 70.193 245.11 71.134 244.104 72.033 243.238 72.806 241.421 74.428 240.294 75.506 240.294 75.506 240.047 75.687 239.994 76.033 240.177 76.279 240.356 76.525 240.704 76.5779 240.949 76.3969L240.948 76.395Z" clip-rule="evenodd"></path>
  <path fill="#000" fill-rule="evenodd" d="M284.452 57.469C284.452 57.469 285.948 57.128 288.218 56.439 289.308 56.108 290.566 55.707 291.911 55.204 292.843 54.855 293.806 54.443 294.788 54.013 296.197 53.397 297.636 52.725 299.028 52.022 300.659 51.197 302.242 50.36 303.601 49.469 305.404 48.286 306.82 47.061 307.706 46.011 307.96 45.759 307.96 45.349 307.708 45.097 307.456 44.844 307.046 44.844 306.794 45.096 305.903 45.838 304.542 46.545 302.959 47.354 302.107 47.788 301.199 48.25 300.247 48.716 298.389 49.626 296.377 50.545 294.426 51.422 293.063 52.035 291.727 52.616 290.506 53.19 289.301 53.757 288.217 54.312 287.282 54.784 285.314 55.775 284.068 56.432 284.068 56.432 283.782 56.538 283.635 56.856 283.742 57.143 283.849 57.429 284.166 57.576 284.454 57.47L284.452 57.469ZM305.62 76.463C305.62 76.463 306.797 76.165 308.584 75.426 309.423 75.079 310.383 74.639 311.409 74.071 312.103 73.686 312.816 73.234 313.537 72.73 314.527 72.037 315.521 71.233 316.483 70.343 317.4 69.495 318.286 68.564 319.09 67.546 319.878 66.547 320.618 65.482 321.187 64.315 321.929 62.796 322.412 61.154 322.651 59.405 322.731 59.057 322.514 58.71 322.167 58.63 321.819 58.55 321.471 58.767 321.391 59.114 320.892 60.629 320.119 61.956 319.286 63.237 318.438 64.546 317.492 65.767 316.45 66.867 315.463 67.912 314.411 68.857 313.366 69.71 312.606 70.329 311.849 70.896 311.126 71.427 310.521 71.872 309.948 72.295 309.401 72.681 308.755 73.138 308.169 73.55 307.637 73.906 306.164 74.89 305.209 75.436 305.209 75.436 304.925 75.549 304.787 75.871 304.9 76.155 305.014 76.439 305.335 76.577 305.619 76.464L305.62 76.463ZM306.392 81.99C306.392 81.99 307.112 82.209 308.372 82.32 308.944 82.37 309.605 82.386 310.36 82.327 310.857 82.288 311.382 82.198 311.932 82.073 312.661 81.907 313.428 81.656 314.211 81.333 314.917 81.042 315.641 80.689 316.353 80.25 317.008 79.846 317.679 79.402 318.287 78.833 319.029 78.139 319.671 77.321 320.299 76.386 320.539 76.122 320.521 75.713 320.258 75.473 319.994 75.233 319.584 75.251 319.344 75.515 318.554 76.157 317.742 76.616 316.961 77.097 316.343 77.476 315.753 77.837 315.16 78.146 314.518 78.48 313.886 78.763 313.27 79.006 312.587 79.276 311.923 79.4869 311.3 79.6729 310.826 79.8149 310.379 79.941 309.957 80.059 309.306 80.241 308.743 80.4099 308.244 80.5269 307.147 80.7839 306.494 80.8889 306.494 80.8889 306.191 80.8609 305.921 81.0849 305.892 81.3889 305.864 81.6929 306.087 81.963 306.391 81.991L306.392 81.99ZM313.632 108.041C313.632 108.041 314.665 108.362 316.377 108.514 317.177 108.585 318.113 108.611 319.154 108.53 319.855 108.476 320.595 108.357 321.363 108.184 322.394 107.95 323.471 107.596 324.559 107.122 325.547 106.691 326.546 106.158 327.517 105.488 328.404 104.877 329.295 104.181 330.095 103.318 331.046 102.294 331.87 101.079 332.627 99.679 332.829 99.385 332.755 98.982 332.46 98.78 332.166 98.578 331.763 98.653 331.56 98.947 330.616 100.055 329.595 100.917 328.603 101.722 327.796 102.376 327.002 102.964 326.195 103.461 325.315 104.002 324.435 104.447 323.565 104.816 322.603 105.224 321.655 105.529 320.756 105.777 320.08 105.964 319.43 106.118 318.818 106.252 317.886 106.455 317.056 106.618 316.332 106.718 314.777 106.932 313.8 106.949 313.8 106.949 313.498 106.902 313.216 107.108 313.168 107.41 313.122 107.712 313.328 107.995 313.63 108.042L313.632 108.041ZM323.447 135.891C323.447 135.891 323.204 134.119 322.411 133.023 321.833 132.223 320.974 131.839 319.891 132.087 319.241 132.235 318.459 132.713 317.566 133.733 317.124 134.235 316.672 134.901 316.166 135.733 315.527 136.857 314.968 138.049 314.51 139.276 313.821 141.119 313.328 143.03 312.987 144.846 312.735 146.178 312.549 147.457 312.462 148.626 312.212 151.969 312.485 154.34 312.485 154.34 312.485 154.697 312.776 154.986 313.133 154.986 313.49 154.986 313.779 154.695 313.779 154.338 313.779 154.338 314.054 152.081 314.636 148.908 314.929 147.305 315.271 145.467 315.775 143.579 316.377 141.327 317.159 138.993 318.309 136.928 318.618 136.328 318.914 135.83 319.187 135.412 319.549 134.861 319.842 134.454 320.147 134.202 320.392 134 320.555 133.838 320.747 133.891 321.201 134.019 321.546 134.489 321.801 134.932 322.156 135.55 322.365 136.127 322.365 136.127 322.431 136.425 322.725 136.615 323.023 136.55 323.321 136.485 323.511 136.19 323.445 135.892L323.447 135.891Z" clip-rule="evenodd"></path>
  <path fill="#000" fill-rule="evenodd" d="M315.456 140.89C315.456 140.89 315.839 142.19 316.235 144.017 316.372 144.647 316.515 145.331 316.634 146.052 316.808 147.101 316.95 148.224 316.806 149.34 316.723 150.211 316.552 150.905 316.359 151.473 316.254 151.785 316.167 152.062 316.054 152.3 315.541 153.365 314.979 153.705 314.979 153.705 314.629 153.78 314.406 154.122 314.479 154.472 314.552 154.82 314.894 155.045 315.244 154.971L317.75 153.408C318.062 153.039 318.348 152.565 318.607 151.974 318.882 151.353 319.077 150.584 319.233 149.669 319.363 148.803 319.389 147.928 319.311 147.077 319.231 146.215 319.077 145.371 318.828 144.604 318.61 143.931 318.342 143.32 318.054 142.782 317.229 141.243 316.411 140.331 316.411 140.331 316.255 140.068 315.916 139.98 315.653 140.135 315.39 140.29 315.302 140.629 315.456 140.892V140.89ZM233.477 179.226C233.477 179.226 237.671 179.865 243.567 179.927 246.584 179.959 250.044 179.84 253.625 179.409 256.905 179.015 260.262 178.309 263.511 177.295 264.489 176.99 265.458 176.674 266.416 176.323 268.714 175.48 270.908 174.444 272.936 173.09 273.58 172.588 273.694 171.656 273.192 171.012 272.688 170.37 271.758 170.254 271.114 170.756 269.221 172.468 267.105 173.906 264.777 174.983 263.836 175.418 262.864 175.787 261.875 176.106 260.383 176.589 258.851 176.947 257.321 177.233 253.252 177.991 249.172 178.186 245.589 178.11 238.876 177.966 233.912 176.87 233.912 176.87 233.263 176.749 232.636 177.179 232.516 177.83 232.395 178.48 232.825 179.106 233.476 179.227L233.477 179.226ZM240.096 140.673C240.096 140.673 240.043 141.773 239.725 143.508 239.574 144.329 239.384 145.293 239.069 146.346 238.584 147.958 237.841 149.783 236.673 151.638 234.501 155.102 234.096 157.81 235.021 159.973 235.557 161.226 236.542 162.349 238.029 163.297 239.035 163.939 240.279 164.498 241.741 165.015 242.314 165.233 242.958 164.944 243.177 164.371 243.394 163.798 243.106 163.155 242.533 162.937 241.273 162.422 240.217 161.865 239.349 161.281 238.339 160.603 237.605 159.888 237.232 159.024 236.543 157.423 237.092 155.471 238.691 152.9 239.974 150.831 240.797 148.801 241.31 147.004 241.645 145.831 241.871 144.761 241.974 143.84 242.198 141.821 241.993 140.547 241.993 140.547 241.957 140.024 241.505 139.627 240.981 139.662 240.458 139.697 240.062 140.15 240.096 140.673ZM219.133 120.499C219.133 120.499 219.637 119.553 220.501 118.387 220.702 118.116 220.92 117.834 221.156 117.545 222.109 116.374 223.412 115.158 225.186 114.794 226.707 114.482 228.487 114.885 230.73 116.193 231.449 116.611 232.237 117.065 233.053 117.672 233.461 118.027 234.082 117.983 234.437 117.573 234.792 117.164 234.748 116.544 234.338 116.189 233.536 115.383 232.778 114.698 232.013 114.171 229.197 112.234 226.687 112.007 224.693 112.435 222.326 112.943 220.519 114.515 219.339 116.149 219.08 116.506 218.851 116.864 218.661 117.215 217.857 118.703 217.566 119.936 217.566 119.936 217.412 120.368 217.635 120.845 218.068 121 218.501 121.155 218.977 120.93 219.133 120.498V120.499ZM261.604 114.105C261.604 114.105 262.811 113.253 264.763 112.339 265.203 112.133 265.679 111.922 266.186 111.712 268.209 110.878 270.775 110.156 273.652 110.307 276.223 110.442 278.985 111.331 281.909 113.278 282.919 113.951 283.98 114.701 285.029 115.646 285.411 116.029 286.033 116.029 286.415 115.646 286.798 115.263 286.8 114.641 286.417 114.258 285.382 113.107 284.355 112.116 283.288 111.321 280.042 108.901 276.734 108.036 273.771 107.9 270.484 107.749 267.539 108.567 265.271 109.612 264.716 109.868 264.203 110.136 263.74 110.413 261.673 111.649 260.512 112.85 260.512 112.85 260.164 113.152 260.129 113.678 260.43 114.024 260.732 114.37 261.256 114.407 261.604 114.105ZM261.723 135.248C261.723 135.248 263.132 133.953 265.464 132.805 267.125 131.987 269.26 131.22 271.847 131.261 274.8 131.308 278.294 132.345 282.232 135.293 282.553 135.535 282.97 135.608 283.354 135.49L288.067 133.797C288.605 133.632 288.908 133.061 288.743 132.523 288.578 131.985 288.006 131.682 287.469 131.848L283.254 132.929C278.972 129.815 275.128 128.718 271.881 128.688 268.793 128.66 266.202 129.542 264.3 130.664 263.461 131.159 262.763 131.703 262.197 132.204 260.997 133.267 260.392 134.124 260.392 134.124 260.081 134.491 260.128 135.041 260.495 135.352 260.862 135.662 261.413 135.616 261.723 135.249V135.248ZM220.604 135.282C220.604 135.282 221.374 134.724 222.574 134.049 222.845 133.897 223.138 133.742 223.445 133.576 224.67 132.915 226.206 132.253 227.951 132.195 229.523 132.143 231.204 132.63 233.019 133.863 233.651 134.293 234.329 134.756 234.998 135.375 235.378 135.79 236.024 135.819 236.439 135.439 236.854 135.059 236.883 134.414 236.503 133.998 235.85 133.155 235.199 132.439 234.507 131.871 232.276 130.042 229.934 129.549 227.868 129.617 225.659 129.689 223.659 130.462 222.177 131.418 221.703 131.723 221.29 132.047 220.937 132.364 219.885 133.307 219.334 134.09 219.334 134.09 219.004 134.441 219.022 134.993 219.373 135.322 219.723 135.651 220.275 135.633 220.605 135.283L220.604 135.282ZM297.095 174.065C297.095 174.065 293.404 182.049 292.566 193.256 292.128 199.144 292.477 205.918 294.552 212.892 296.525 219.509 300.884 224.659 306.559 228.886 318.19 237.548 335.43 242.295 348.184 248.426 357.068 252.674 363.154 256.719 367.476 263.86 372.067 271.448 374.681 282.46 376.665 300.644 377.748 310.56 379.483 322.214 381.479 334.243 386.748 365.968 393.841 400.287 395.538 411.994 396.544 418.929 391.857 424.837 384.693 428.799 375.957 433.631 363.508 435.564 352.282 432.81 344.208 430.828 332.247 422.205 320.268 412.079 300.726 395.559 281.218 374.951 278.446 371.595 277.44 370.381 275.986 369.506 274.066 368.871 271.124 367.897 266.996 367.46 261.763 366.855 254.583 366.026 245.266 364.846 234.042 361.277 225.723 358.636 219.826 355.62 215.684 352.807 208.307 347.799 206.61 343.535 206.61 343.535 206.411 343.01 205.822 342.744 205.295 342.944 204.77 343.145 204.505 343.734 204.704 344.261L214.487 354.557C218.739 357.485 224.789 360.653 233.348 363.435 249.241 368.585 261.367 368.991 269.065 370.253 272.607 370.835 275.148 371.511 276.522 373.183 279.312 376.565 298.944 397.36 318.624 414.02 330.961 424.464 343.35 433.251 351.671 435.296 363.54 438.213 376.7 436.157 385.937 431.049 394.145 426.511 399.239 419.569 398.088 411.624 396.39 399.91 389.293 365.566 384.017 333.822 382.026 321.845 380.294 310.239 379.213 300.365 377.16 281.655 374.377 270.349 369.644 262.545 365.066 254.992 358.672 250.65 349.263 246.165 338.447 241.035 324.399 236.925 313.299 230.55 305.437 226.037 299.056 220.39 296.57 212.28 294.51 205.583 294.117 199.063 294.488 193.389 295.196 182.544 298.681 174.786 298.681 174.786 298.88 174.348 298.686 173.831 298.25 173.633 297.812 173.432 297.295 173.627 297.095 174.065ZM255.949 211.419C255.949 211.419 253.028 216.257 248.103 221.332 245.414 224.102 242.153 226.988 238.321 229.087 232.639 232.233 222.532 236.32 213.384 240.338 209.499 242.043 205.778 243.719 202.648 245.335 198.644 247.402 195.587 249.374 194.178 250.948 193.795 251.36 193.816 252.006 194.228 252.389 194.64 252.772 195.286 252.751 195.669 252.339 197.032 250.939 199.994 249.343 203.743 247.525 206.879 246.004 210.556 244.345 214.405 242.677 223.653 238.666 233.83 234.507 239.565 231.336 243.616 229.07 247.132 226.048 249.893 223.013 254.848 217.569 257.478 212.255 257.478 212.255 257.709 211.833 257.553 211.304 257.13 211.073 256.71 210.842 256.18 210.997 255.949 211.419Z" clip-rule="evenodd"></path>
  <path fill="#000" fill-rule="evenodd" d="M231.204 353.903C231.204 353.903 229.69 353.333 227.344 352.416C226.222 351.978 224.922 351.452 223.495 350.893C221.145 349.97 218.473 348.934 215.866 347.764C212.31 346.169 208.847 344.385 206.441 342.531C203.38 340.194 200.652 338.027 198.43 336.343C195.126 333.843 193.005 332.327 193.005 332.327C192.567 331.976 191.924 332.045 191.571 332.483C191.22 332.923 191.289 333.564 191.727 333.917C191.727 333.917 193.67 335.669 196.889 338.3C199.054 340.067 201.824 342.197 204.873 344.564C207.996 346.969 212.774 349.323 217.402 351.215C219.709 352.157 221.966 353.011 223.963 353.664C227.855 354.933 230.701 355.57 230.701 355.57C231.161 355.708 231.647 355.448 231.785 354.988C231.925 354.527 231.664 354.04 231.203 353.902L231.204 353.903Z" clip-rule="evenodd"></path>
  <path fill="#000" fill-rule="evenodd" d="M236.6 326.264C235.115 325.9 233.521 325.536 231.855 325.189C227.167 324.215 221.898 323.377 216.899 323.075C209.721 322.644 204.899 322.463 200.402 321.71C197.041 321.147 193.866 320.26 189.997 318.699C184.684 316.562 180.554 317.76 178.416 319.899C176.113 322.202 175.88 325.622 178.53 328.069C180.012 329.434 184.29 331.327 189.508 333.228C199.472 336.861 212.913 340.717 215.444 341.744L227.547 346.415C227.996 346.589 228.5 346.364 228.672 345.916C228.846 345.467 228.622 344.961 228.173 344.789L216.178 339.964C213.654 338.903 200.242 334.851 190.297 331.098C185.497 329.284 181.518 327.591 180.162 326.315C179.232 325.442 178.911 324.37 179.14 323.366C179.374 322.335 180.157 321.403 181.317 320.795C183.132 319.844 185.816 319.702 189.056 321.022C193.118 322.671 196.453 323.606 199.982 324.202C204.55 324.974 209.448 325.173 216.743 325.62C221.618 325.92 226.757 326.745 231.332 327.7C238.475 329.191 244.235 330.976 245.371 331.569C249.568 333.761 249.199 330.676 246.695 329.365C246.651 329.34 246.606 329.315 246.56 329.29C246.516 329.267 246.464 329.242 246.406 329.215C246.09 329.05 245.531 328.75 244.8 328.338C242.339 326.956 237.941 324.329 234.298 321.346C231.963 319.433 229.924 317.39 229.031 315.429C227.622 312.339 227.136 309.672 227.599 308.068C227.711 307.679 227.854 307.363 228.158 307.268C228.685 307.099 229.356 307.403 230.233 307.994C233.156 309.96 237.583 313.121 243.819 316.579C247.883 318.833 252.713 321.213 258.392 323.473C265.253 326.202 271.281 329.528 276.725 333.395C282.455 337.468 287.536 342.14 292.26 347.354C292.386 347.492 292.54 347.602 292.713 347.675C292.713 347.675 311.279 355.476 328.925 363.181C338.038 367.161 346.911 371.108 352.832 373.963C361.405 378.071 367.437 382.135 371.772 386.185C376.063 390.192 378.679 394.176 380.468 398.153C380.697 398.668 381.3 398.9 381.813 398.673C382.328 398.444 382.56 397.841 382.331 397.326C380.484 393.106 377.763 388.87 373.272 384.595C368.844 380.379 362.676 376.12 353.881 371.804C347.949 368.911 339.07 364.897 329.935 360.878C313.515 353.655 296.274 346.399 293.964 345.428C289.171 340.159 284.014 335.432 278.213 331.306C272.611 327.322 266.405 323.895 259.345 321.083C253.782 318.865 249.052 316.531 245.07 314.324C238.921 310.911 234.554 307.795 231.672 305.856C229.906 304.667 228.435 304.474 227.374 304.813C226.318 305.152 225.512 306.004 225.124 307.354C224.551 309.338 224.945 312.678 226.687 316.499C228.188 319.794 232.467 323.402 236.6 326.265V326.264Z" clip-rule="evenodd"></path>
  <path fill="#000" fill-rule="evenodd" d="M337.604 315.205C337.604 315.205 337.355 316.845 337.004 319.539 336.842 320.783 336.647 322.245 336.477 323.88 335.888 329.521 335.308 337.131 334.786 344.205 334.472 348.459 334.174 352.519 334.049 355.852 333.903 359.774 333.966 362.704 334.134 363.8 334.203 364.359 334.711 364.756 335.27 364.689 335.829 364.62 336.226 364.112 336.159 363.553 336.061 362.499 336.289 359.718 336.549 355.986 336.852 351.675 337.213 346.125 337.646 340.527 338.069 335.052 338.549 329.532 338.871 325.058 338.946 324.031 339.004 323.058 339.05 322.153 339.263 318.041 339.339 315.363 339.339 315.363 339.382 314.884 339.028 314.46 338.549 314.415 338.072 314.372 337.648 314.726 337.604 315.205ZM185.49 171.309C185.481 171.362 185.462 171.451 185.439 171.513 184.678 173.449 182.312 174.784 179.583 175.749 175.457 177.208 170.419 177.703 167.672 177.305 167.276 177.246 166.879 177.404 166.634 177.718 166.634 177.718 165.296 179.443 163.489 181.455 162.456 182.605 161.271 183.851 160.092 184.917 159.959 185.036 159.858 185.189 159.797 185.357L155.612 197.414C155.426 197.945 155.706 198.527 156.237 198.713 156.768 198.899 157.35 198.621 157.536 198.088L161.719 186.322C162.894 185.259 164.07 184.043 165.101 182.917 166.382 181.515 167.438 180.248 167.983 179.581 171.074 179.89 176.143 179.389 180.347 177.938 183.82 176.738 186.666 174.84 187.649 172.391 187.929 171.694 187.933 171.104 187.791 170.615 187.617 170.013 187.211 169.518 186.567 169.156 185.896 168.778 184.883 168.547 183.69 168.451 181.915 168.311 179.687 168.439 177.823 168.479 176.435 168.511 174.803 167.677 173.142 166.818 171.273 165.853 169.387 164.813 167.761 164.406 166.336 164.049 165.067 164.158 164.043 164.855 162.432 165.953 159.683 168.246 156.934 170.704 154.446 172.929 151.954 175.291 150.313 177.009 148.978 178.407 148.026 179.871 147.179 181.577 145.8 184.354 144.711 187.813 142.524 192.798 140.451 197.529 139.142 199.011 138.597 201.939 138.214 204.005 138.205 206.793 138.629 211.941 139.247 219.428 140.045 228.665 140.466 235.951 140.72 240.327 140.839 243.992 140.695 246.116 140.546 248.283 137.341 257.136 133.141 268.157 126.353 285.963 116.909 309.306 112.895 319.61 108.929 329.791 104.212 341.647 102.459 353.622 101.277 361.689 101.437 369.808 104.012 377.524 107.378 387.605 111.632 394.395 116.498 397.875 121.284 401.298 126.686 401.68 132.569 398.872 136.037 397.213 141.509 392.141 147.396 385.813 160.681 371.533 176.304 350.924 176.304 350.924 176.347 350.867 176.384 350.805 176.414 350.741 176.414 350.741 178.444 346.368 180.341 340.031 181.326 336.746 182.274 332.933 182.888 328.927 182.963 328.451 182.638 328.004 182.164 327.93 181.688 327.854 181.241 328.178 181.167 328.654 180.523 332.563 179.55 336.281 178.551 339.483 176.801 345.093 174.966 349.112 174.65 349.788 173.546 351.208 158.45 370.561 145.628 384.155 139.972 390.151 134.803 395.039 131.49 396.607 126.539 398.96 121.994 398.699 117.973 395.816 113.428 392.558 109.574 386.141 106.436 376.716 103.992 369.38 103.875 361.66 105 353.994 106.73 342.216 111.392 330.559 115.294 320.545 119.31 310.236 128.76 286.888 135.546 269.074 139.88 257.695 143.104 248.528 143.255 246.29 143.404 244.098 143.287 240.318 143.024 235.804 142.6 228.496 141.798 219.236 141.175 211.73 140.774 206.93 140.744 204.33 141.1 202.404 141.609 199.644 142.899 198.273 144.848 193.815 147.009 188.876 148.08 185.451 149.442 182.699 150.171 181.226 150.986 179.957 152.138 178.751 153.742 177.069 156.179 174.756 158.612 172.577 161.26 170.204 163.904 167.986 165.457 166.925 165.924 166.606 166.511 166.669 167.162 166.829 168.931 167.264 171.023 168.554 173.047 169.53 174.763 170.357 176.444 170.96 177.885 170.921 179.805 170.868 182.13 170.706 183.881 170.889 184.383 170.94 184.832 171.017 185.187 171.15 185.293 171.189 185.432 171.272 185.49 171.308V171.309Z" clip-rule="evenodd"></path>
  <path fill="#000" fill-rule="evenodd" d="M184.532 193.485C184.168 193.874 184.163 194.484 184.532 194.878C184.917 195.29 185.563 195.311 185.973 194.926C186.468 194.495 186.844 193.343 186.693 191.868C186.521 190.193 185.717 188.053 184.058 186.516C182.329 184.915 179.664 183.946 175.852 184.843C172.736 185.585 168.523 187.855 164.385 190.566C161.106 192.713 157.831 195.086 155.246 197.18C151.846 199.932 149.597 202.133 149.597 202.133C149.23 202.444 149.184 202.994 149.494 203.361C149.805 203.728 150.355 203.774 150.722 203.464C150.722 203.464 153.228 201.643 156.722 199.104C159.368 197.182 162.553 194.815 165.788 192.723C169.658 190.219 173.543 188.027 176.446 187.334C179.188 186.669 181.103 187.272 182.386 188.383C183.628 189.462 184.303 190.96 184.51 192.166C184.577 192.56 184.613 192.917 184.581 193.208C184.569 193.316 184.464 193.449 184.531 193.487L184.532 193.485Z" clip-rule="evenodd"></path>
  <path fill="#000" fill-rule="evenodd" d="M164.986 206.532C164.986 206.532 166.718 205.473 169.204 203.943C169.77 203.595 170.372 203.217 170.998 202.818C173.756 201.059 177.053 198.983 180.054 197.485C181.782 196.621 183.394 195.936 184.718 195.623C185.376 195.469 185.937 195.389 186.368 195.501C187.789 195.858 188.79 196.614 189.518 197.425C190.932 199.004 191.358 200.823 191.358 200.823C191.443 201.38 191.965 201.762 192.52 201.677C193.077 201.592 193.459 201.072 193.374 200.515C193.374 200.515 193.126 198.018 191.385 195.844C190.427 194.646 189.003 193.587 187.012 193.042C186.263 192.843 185.282 192.868 184.137 193.131C182.653 193.472 180.833 194.208 178.898 195.177C175.814 196.724 172.389 198.822 169.613 200.726C168.992 201.154 168.404 201.572 167.865 201.979C165.496 203.762 163.948 205.132 163.948 205.132C163.561 205.418 163.479 205.964 163.765 206.351C164.052 206.736 164.597 206.818 164.984 206.532H164.986Z" clip-rule="evenodd"></path>
  <path fill="#000" fill-rule="evenodd" d="M174.761 215.74 190.055 203.73C191.421 202.672 193.356 201.455 195.487 200.183 200.22 197.358 205.936 194.32 208.956 192.559 210.954 191.391 212.516 190.406 213.758 189.981 214.171 189.841 214.518 189.745 214.819 189.843 215.073 189.923 215.238 190.161 215.417 190.5 215.703 191.038 215.451 191.668 215.044 192.397 214.449 193.469 213.427 194.647 212.151 195.905 208.297 199.71 202.201 204.12 197.505 208.105 193.299 211.675 188.169 217.203 183.489 223.244 179.012 229.022 174.95 235.269 172.453 240.681 170.987 243.93 169.803 246.156 168.827 247.774 166.476 251.678 165.308 252.2 164.346 254.713 164.138 255.236 164.394 255.829 164.917 256.037 165.441 256.245 166.033 255.989 166.241 255.466 167.222 253.084 168.395 252.639 170.734 248.955 171.783 247.305 173.059 245.031 174.651 241.706 177.111 236.453 181.121 230.412 185.497 224.806 190.079 218.936 195.066 213.541 199.167 210.066 204.8 205.289 212.4 199.889 215.907 195.631 216.848 194.488 217.511 193.406 217.838 192.433 218.227 191.269 218.175 190.215 217.687 189.296 216.794 187.61 215.614 187.094 214.117 187.268 212.584 187.447 210.488 188.693 207.661 190.352 204.642 192.13 198.91 195.168 194.197 198.052 191.982 199.406 189.995 200.733 188.584 201.866 187.085 203.082 184.852 204.929 182.572 206.842 178.205 210.505 173.653 214.395 173.653 214.395 173.282 214.7 173.229 215.25 173.534 215.621 173.839 215.992 174.388 216.047 174.76 215.742L174.761 215.74ZM140.676 391.729C140.676 391.729 144.777 388.093 149.105 381.337 150.557 379.073 152.033 376.455 153.375 373.506 156.072 367.57 158.228 360.296 158.782 351.927 159.771 336.422 160.88 317.832 161.717 303.622 161.985 299.067 162.205 294.964 162.423 291.556 162.595 288.846 162.749 286.58 162.902 284.882 162.962 284.323 162.556 283.821 161.997 283.76 161.436 283.701 160.934 284.108 160.875 284.667 160.543 287.4 160.133 291.597 159.718 296.75 159.519 299.231 159.32 301.934 159.125 304.801 158.17 318.817 157.191 336.74 156.213 351.76 155.709 359.794 153.597 366.752 151.091 372.486 149.481 376.17 147.712 379.354 146.035 381.971 142.534 387.439 139.485 390.454 139.485 390.454 139.134 390.782 139.116 391.334 139.444 391.686 139.77 392.037 140.322 392.057 140.674 391.729H140.676ZM183.557 313.43C183.947 313.363 184.732 313.423 185.42 313.363 187.929 313.145 191.931 312.967 196.124 312.871 201.047 312.759 206.23 312.722 209.584 312.786 212.416 312.832 215.371 312.919 218.001 312.937 222.741 312.971 226.421 312.901 226.421 312.901 226.984 312.915 227.452 312.47 227.466 311.907 227.48 311.344 227.035 310.876 226.472 310.862 226.472 310.862 222.797 310.61 218.055 310.431 215.425 310.33 212.467 310.291 209.633 310.225 204.233 310.124 194.132 310.2 187.905 310.656 185.539 310.828 183.71 311.068 182.851 311.323 182.281 311.492 181.944 311.731 181.8 311.907 181.646 312.093 181.495 312.331 181.401 312.636 181.257 313.104 181.186 313.786 181.224 314.553 181.32 316.544 181.96 319.195 181.96 319.195 182.052 319.667 182.508 319.978 182.98 319.885 183.452 319.795 183.763 319.337 183.67 318.865 183.67 318.865 183.457 317.314 183.395 315.749 183.37 315.123 183.374 314.498 183.431 313.978 183.452 313.792 183.521 313.541 183.555 313.43H183.557ZM183.543 313.432C183.369 313.464 183.279 313.524 183.318 313.634 183.359 313.755 183.487 313.494 183.531 313.448L183.543 313.432ZM238.13 312.333C238.13 312.333 239.702 312.706 242.009 313.172 242.531 313.277 243.09 313.38 243.679 313.479 246.243 313.914 249.319 314.386 252.005 314.925 254.415 315.409 256.509 315.896 257.576 316.398 258.529 316.836 258.912 317.534 259.029 318.251 259.269 319.724 258.649 321.243 258.649 321.243 258.395 321.745 258.596 322.359 259.098 322.613 259.6 322.869 260.214 322.668 260.468 322.166 260.468 322.166 261.073 321.121 261.355 319.753 261.532 318.891 261.554 317.911 261.273 316.981 260.937 315.861 260.151 314.818 258.664 314.101 256.92 313.27 252.675 312.355 248.481 311.666 246.721 311.377 244.976 311.098 243.436 310.928 242.494 310.823 241.633 310.768 240.895 310.722 239.331 310.623 238.341 310.605 238.341 310.605 237.864 310.546 237.429 310.885 237.368 311.363 237.309 311.84 237.65 312.275 238.128 312.334L238.13 312.333Z" clip-rule="evenodd"></path>
  <path fill="#000" fill-rule="evenodd" d="M174.145 246.646C169.029 247.732 165.135 251.205 162.823 257.432C160.812 262.845 160.001 270.422 160.64 280.372C161.204 289.163 164.455 296.634 168.791 302.184C174.949 310.067 183.327 314.015 189.424 312.693C194.721 311.543 199.204 308.115 201.915 302.294C204.54 296.663 205.498 288.722 203.801 278.394C202.035 267.661 197.455 258.825 191.791 253.193C186.43 247.862 180.084 245.387 174.144 246.646H174.145ZM174.665 249.095C179.856 247.993 185.341 250.311 190.026 254.967C195.378 260.289 199.664 268.658 201.33 278.8C202.924 288.493 202.109 295.952 199.646 301.238C197.305 306.26 193.467 309.254 188.894 310.246C183.492 311.417 176.222 307.627 170.765 300.642C166.705 295.446 163.668 288.445 163.14 280.211C162.531 270.712 163.252 263.473 165.172 258.305C167.128 253.036 170.338 250.014 174.666 249.095H174.665Z" clip-rule="evenodd"></path>
  <path fill="#000" fill-rule="evenodd" d="M175.749 248.426C175.749 248.426 179.243 247.819 182.934 247.8 184.531 247.791 186.164 247.892 187.552 248.224 188.615 248.469 189.983 249.214 191.529 250.348 193.953 252.126 196.746 254.873 199.316 258.509 202.092 262.436 204.615 267.382 206.143 273.229 207.779 279.442 207.715 286.659 206.718 293.106 206.344 295.537 205.824 297.855 205.233 299.975 204.534 302.481 203.726 304.708 202.832 306.488 201.762 308.614 200.678 310.121 199.496 310.488 198.957 310.646 198.644 311.212 198.802 311.752 198.958 312.293 199.524 312.604 200.065 312.448 201.417 312.084 202.871 310.775 204.191 308.672 205.838 306.047 207.362 302.143 208.423 297.618 210.224 289.943 210.7 280.484 208.64 272.575 206.636 264.948 203.045 258.765 199.298 254.29 197.259 251.853 195.179 249.914 193.279 248.526 191.258 247.05 189.419 246.187 188.053 245.91 186.486 245.607 184.655 245.553 182.869 245.651 179.013 245.864 175.396 246.721 175.396 246.721 174.926 246.819 174.622 247.278 174.72 247.75 174.816 248.22 175.277 248.524 175.749 248.426ZM260.348 318.261C260.348 318.261 274.028 316.871 286.67 316.357 293.602 316.077 300.217 316.048 304.036 316.68 307.647 317.276 312.487 319.299 317.301 321.683 326.777 326.373 336.146 332.499 336.146 332.499 336.724 332.877 337.5 332.715 337.878 332.137 338.258 331.558 338.094 330.781 337.516 330.403 337.516 330.403 328.02 324.192 318.412 319.438 313.347 316.93 308.244 314.838 304.444 314.21 300.513 313.561 293.702 313.566 286.569 313.857 273.852 314.373 260.094 315.77 260.094 315.77 259.407 315.839 258.905 316.455 258.976 317.142 259.045 317.829 259.659 318.331 260.348 318.262V318.261Z" clip-rule="evenodd"></path>
  <path fill="#000" fill-rule="evenodd" d="M316.296 329.861C316.296 329.861 322.564 332.042 328.024 334.507 331.023 335.861 333.786 337.274 334.996 338.464 335.489 338.948 336.283 338.941 336.767 338.448 337.251 337.955 337.244 337.161 336.751 336.677 335.676 335.619 333.532 334.361 331.009 333.137 325.116 330.28 317.119 327.497 317.119 327.497 316.466 327.27 315.753 327.614 315.525 328.267 315.298 328.92 315.644 329.633 316.295 329.861H316.296ZM323.527 344.796C323.527 344.796 327.527 344.139 331.135 343.621 333.234 343.319 335.197 343.064 336.125 343.019 336.815 342.989 337.349 342.401 337.317 341.711 337.285 341.021 336.7 340.486 336.009 340.518 335.228 340.553 333.75 340.729 332.061 340.962 328.169 341.496 323.121 342.323 323.121 342.323 322.44 342.435 321.976 343.079 322.088 343.762 322.2 344.443 322.846 344.907 323.527 344.795V344.796ZM306.819 315.524C306.819 315.524 307.857 300.612 310.306 284.293 311.346 277.36 312.641 270.171 314.223 263.768 316.654 253.915 318.66 247.291 320.45 243.014 321.534 240.423 322.507 238.741 323.469 237.768 324.008 237.223 324.505 236.941 325.031 236.945 325.723 236.952 326.287 236.395 326.293 235.703 326.298 235.013 325.741 234.448 325.051 234.443 323.947 234.434 322.822 234.864 321.69 236.006 320.577 237.131 319.395 239.049 318.141 242.047 316.319 246.4 314.267 253.14 311.793 263.167 310.194 269.643 308.883 276.911 307.832 283.923 305.367 300.345 304.324 315.351 304.324 315.351 304.276 316.04 304.796 316.639 305.485 316.687 306.175 316.735 306.773 316.213 306.821 315.525L306.819 315.524ZM221.14 234.427C221.14 234.427 218.842 236.321 216.214 241.65 214.803 244.514 213.279 248.401 211.971 253.566 210.809 258.155 209.93 262.404 209.272 266.05 207.893 273.713 207.49 278.731 207.49 278.731 207.435 279.42 207.95 280.025 208.638 280.08 209.327 280.135 209.93 279.62 209.987 278.932 209.987 278.932 210.383 274.009 211.737 266.494 212.385 262.897 213.253 258.709 214.399 254.18 215.654 249.229 217.107 245.502 218.461 242.757 220.782 238.051 222.756 236.34 222.756 236.34 223.283 235.895 223.351 235.103 222.905 234.576 222.46 234.047 221.667 233.982 221.14 234.427ZM206.892 311.299C206.892 311.299 207.208 307.368 207.646 303.528 207.861 301.647 208.106 299.787 208.358 298.433 208.484 297.753 208.035 297.1 207.355 296.974 206.675 296.848 206.022 297.297 205.895 297.975 205.636 299.375 205.382 301.299 205.159 303.244 204.715 307.125 204.398 311.098 204.398 311.098 204.341 311.787 204.856 312.392 205.544 312.447 206.233 312.502 206.837 311.987 206.892 311.299ZM225.993 250.508C225.993 250.508 228.346 250.939 231.551 251.42 234.058 251.794 237.093 252.149 239.87 252.643 242.069 253.033 244.108 253.466 245.593 253.953 247.763 254.654 249.941 255.836 252.065 256.842 253.691 257.61 255.284 258.285 256.791 258.654 258.929 259.181 260.91 259.121 262.629 258.01 263.092 257.73 263.241 257.126 262.963 256.663 262.683 256.2 262.079 256.049 261.616 256.329 260.333 257.048 258.913 256.902 257.398 256.443 256.044 256.031 254.631 255.332 253.165 254.592 250.965 253.479 248.663 252.271 246.393 251.515 243.928 250.708 240.022 249.994 236.283 249.481 234.501 249.238 232.762 249.005 231.236 248.885 228.279 248.649 226.152 248.67 226.152 248.67 225.644 248.626 225.197 249.002 225.153 249.509 225.109 250.016 225.486 250.464 225.993 250.508ZM274.832 255.312C274.832 255.312 275.97 255.172 277.835 254.877 278.35 254.797 278.916 254.703 279.528 254.584 280.692 254.36 282.014 254.064 283.446 253.762 287.411 252.924 292.202 251.991 296.514 251.171 299.561 250.594 302.358 250.041 304.491 249.803 305.03 249.762 305.435 249.29 305.392 248.751 305.35 248.21 304.877 247.807 304.338 247.848 302.354 247.933 299.788 248.162 296.996 248.565 295.441 248.789 293.819 249.08 292.185 249.381 287.667 250.217 283.062 251.173 279.674 251.981 278.897 252.166 278.183 252.347 277.553 252.526 275.588 253.085 274.408 253.514 274.408 253.514 273.913 253.631 273.604 254.128 273.721 254.625 273.836 255.12 274.335 255.429 274.83 255.312H274.832ZM174.511 349.999C174.511 349.999 173.161 357.585 171.805 368.437 171.331 372.219 170.886 376.4 170.465 380.788 169.508 390.775 168.761 401.849 168.715 411.836 168.683 422.844 169.024 439.115 169.501 454.504 169.684 460.437 169.89 466.238 170.097 471.554 170.665 486.163 171.206 497.119 171.206 497.119 171.227 497.66 171.685 498.083 172.225 498.061 172.766 498.04 173.189 497.584 173.167 497.042 173.167 497.042 172.8 483.898 172.352 467.214 172.1 457.823 171.805 447.312 171.6 437.39 171.403 427.809 171.265 418.78 171.293 411.843 171.318 403.944 171.806 395.36 172.455 387.181 172.98 380.571 173.644 374.226 174.226 368.713 175.367 357.883 176.334 350.275 176.334 350.275 176.41 349.771 176.064 349.301 175.56 349.224 175.058 349.146 174.586 349.492 174.509 349.996L174.511 349.999Z" clip-rule="evenodd"></path>
  <path fill="#000" fill-rule="evenodd" d="M184.489 444.653C184.489 444.653 184.168 441.331 183.575 436.068 183.445 434.929 183.298 433.701 183.133 432.396 182.12 424.424 180.659 413.592 179.349 403.055 178.485 396.095 177.681 389.266 177.042 383.483 176.212 375.98 175.654 370.266 175.894 368.369 175.97 367.833 175.596 367.336 175.06 367.262 174.524 367.186 174.027 367.56 173.951 368.096 173.667 369.915 173.896 375.189 174.501 382.188 174.746 385.015 175.058 388.129 175.413 391.411 176.148 398.185 177.067 405.679 177.99 412.859 179.016 420.854 179.99 428.47 180.87 434.261 181.855 440.724 182.661 444.912 182.661 444.912 182.732 445.416 183.199 445.769 183.704 445.696 184.208 445.625 184.559 445.158 184.488 444.654L184.489 444.653ZM177.804 377.289C177.804 377.289 178.235 380.047 179.162 384.462 179.46 385.885 179.824 387.475 180.237 389.202 182.04 396.719 184.757 406.803 188.003 416.483 189.481 420.891 191.071 425.219 192.77 429.17 194.789 433.864 196.963 438.024 199.155 441.23 199.453 441.682 200.062 441.807 200.514 441.51 200.966 441.212 201.091 440.603 200.793 440.151 198.772 436.969 196.859 432.836 195.001 428.238 193.411 424.305 191.871 420.03 190.431 415.676 187.251 406.049 184.585 396.033 182.681 388.597 182.243 386.886 181.84 385.314 181.472 383.916 180.327 379.584 179.61 376.908 179.61 376.908 179.505 376.411 179.015 376.092 178.517 376.196 178.018 376.301 177.699 376.792 177.804 377.289ZM158.782 194.567C158.782 194.567 160.447 193.492 163.048 191.696 163.611 191.309 164.21 190.883 164.846 190.424 168.702 187.624 173.898 183.741 179.036 180.005 182.379 177.574 185.696 175.203 188.557 173.175 191.856 170.836 194.539 168.955 196.062 168.153 196.548 167.912 196.747 167.322 196.506 166.838 196.266 166.354 195.677 166.155 195.193 166.394 193.58 167.145 190.673 168.875 187.191 171.182 184.861 172.724 182.275 174.534 179.624 176.424 174.125 180.346 168.327 184.614 164.079 187.863 163.121 188.594 162.244 189.277 161.474 189.902 159.096 191.827 157.669 193.098 157.669 193.098 157.263 193.405 157.185 193.985 157.492 194.39 157.799 194.796 158.379 194.876 158.784 194.567H158.782ZM181.845 185.203C181.797 185.224 181.749 185.251 181.705 185.283 181.593 185.338 181.506 185.494 181.464 185.689 181.432 185.78 181.423 185.868 181.432 185.955 181.421 186.534 181.771 187.206 182.825 186.81 183.123 186.7 183.753 186.467 184.616 186.098 184.95 185.954 185.315 185.793 185.706 185.599 186.45 185.232 187.277 184.772 188.167 184.288 190.726 182.9 193.791 181.257 196.298 179.795 198.632 178.436 200.474 177.236 201.15 176.826 201.626 176.567 201.803 175.971 201.544 175.495 201.285 175.019 200.689 174.844 200.213 175.101 199.5 175.445 197.496 176.357 195.092 177.6 192.515 178.931 189.484 180.633 186.936 182.04 186.05 182.53 185.218 182.975 184.507 183.399 184.136 183.623 183.802 183.841 183.501 184.043 182.736 184.554 182.209 184.95 181.952 185.126 181.915 185.151 181.879 185.177 181.847 185.202L181.845 185.203Z" clip-rule="evenodd"></path>
  <path fill="#000" fill-rule="evenodd" d="M196.565 160.722C195.937 161.093 195.051 161.764 194.501 162.812 194.009 163.751 193.784 164.988 194.235 166.592 194.666 168.108 195.491 169.241 196.377 170.077 197.277 170.927 198.249 171.456 198.948 171.761 198.941 172.73 199.012 174.272 199.429 175.658 199.823 176.973 200.536 178.132 201.622 178.771 202.74 179.431 203.881 179.444 204.925 179.126 206.112 178.764 207.15 177.923 207.775 177.327 209.063 177.684 211.573 178.158 213.679 177.228 214.88 176.697 215.977 175.755 216.682 174.124 217.639 173.65 219.74 172.491 221.223 170.825 222.281 169.638 223.019 168.204 223.021 166.605 223.023 164.405 222.439 163.251 221.882 162.621 221.596 162.302 221.296 162.082 221.009 161.932 221 161.38 220.938 160.667 220.75 159.849 220.548 158.969 220.198 157.959 219.605 156.901 218.996 155.813 218.109 155.059 217.145 154.548 215.805 153.836 214.327 153.618 213.417 153.552 213.076 152.897 212.484 151.962 211.573 151.169 210.67 150.381 209.468 149.726 207.914 149.588 205.488 149.377 203.774 150.167 202.569 151.265 201.124 152.584 200.441 154.369 200.156 155.35 199.336 155.581 198.069 156.117 197.276 157.314 196.747 158.113 196.387 159.206 196.566 160.721L196.565 160.722ZM219.779 164.198C219.795 164.209 220.146 164.468 220.297 165.052 220.398 165.453 220.457 165.959 220.455 166.601 220.451 167.563 219.94 168.399 219.303 169.114 217.685 170.926 215.165 171.991 215.165 171.991 214.831 172.133 214.572 172.41 214.453 172.751 213.942 174.212 212.975 174.868 211.946 175.101 209.987 175.541 207.887 174.675 207.887 174.675 207.362 174.462 206.762 174.616 206.407 175.057 206.407 175.057 205.623 176.029 204.558 176.53 204.061 176.766 203.479 176.91 202.909 176.578 202.18 176.154 201.883 175.219 201.692 174.317 201.342 172.681 201.479 171.009 201.479 171.009 201.532 170.397 201.133 169.838 200.538 169.689 200.538 169.689 199.202 169.364 197.983 168.305 197.337 167.742 196.707 166.985 196.349 165.932 196.03 165.007 196.074 164.273 196.33 163.705 196.839 162.575 197.975 162.078 197.975 162.078V162.131C198.39 161.961 198.632 161.496 198.546 161.031H198.603C198.392 159.854 198.576 159.036 198.97 158.477 199.722 157.41 201.135 157.338 201.135 157.338 201.621 157.297 202.019 156.933 202.106 156.452 202.106 156.452 202.519 154.338 204.09 152.977 204.908 152.267 206.069 151.802 207.678 151.981 208.645 152.086 209.383 152.517 209.939 153.016 210.998 153.969 211.416 155.188 211.416 155.188 211.595 155.715 212.101 156.059 212.656 156.034 212.656 156.034 214.07 155.979 215.463 156.543 216.196 156.841 216.936 157.318 217.388 158.135 217.842 158.955 218.108 159.734 218.263 160.415 218.566 161.762 218.414 162.694 218.414 162.694 218.341 163.1 218.467 163.517 218.755 163.814 219.023 164.091 219.399 164.228 219.779 164.198ZM192.065 168.461C192.065 168.461 191.847 168.871 191.628 169.6 191.56 169.829 191.505 170.084 191.474 170.372 191.343 171.609 191.6 173.288 192.526 174.874 193.034 175.745 193.745 176.627 194.81 177.318 195.598 177.831 196.567 178.235 197.743 178.528 198.256 178.705 198.815 178.436 198.994 177.925 199.171 177.414 198.902 176.853 198.391 176.676 197.514 176.277 196.854 175.78 196.276 175.31 195.598 174.758 195.096 174.187 194.75 173.585 194.108 172.471 194.033 171.312 193.971 170.442 193.907 169.562 193.836 168.98 193.836 168.98 193.98 168.49 193.699 167.977 193.21 167.835 192.722 167.691 192.209 167.972 192.065 168.461ZM316.468 48.673C316.468 48.673 317.735 49.337 320.088 48.806 320.714 48.665 321.415 48.405 322.187 48.021 323.898 47.17 325.958 45.617 328.306 42.962 330.723 40.164 332.411 37.691 333.5 35.645 335.397 32.084 335.658 29.885 335.658 29.885 335.761 29.353 335.411 28.839 334.881 28.737 334.349 28.635 333.834 28.984 333.733 29.516 333.733 29.516 333.091 31.857 330.631 35.636 329.571 37.267 328.212 39.184 326.37 41.263 324.75 43.12 323.279 44.366 321.999 45.205 321.273 45.681 320.606 46.007 320.024 46.264 318.171 47.078 317.114 46.944 317.114 46.944 316.638 46.766 316.106 47.008 315.927 47.485 315.75 47.962 315.991 48.494 316.468 48.673ZM327.503 50.641C327.503 50.641 328.234 50.207 329.304 49.322 329.643 49.042 330.005 48.706 330.387 48.328 332.041 46.691 334.084 44.29 335.737 41.593 336.319 40.642 336.862 39.654 337.284 38.632 337.958 37.005 338.37 35.319 338.461 33.664 338.52 33.126 338.129 32.641 337.591 32.583 337.053 32.524 336.569 32.914 336.51 33.452 336.311 34.633 335.869 35.785 335.351 36.936 334.842 38.067 334.233 39.18 333.562 40.246 331.977 42.757 330.038 44.972 328.57 46.587 328.226 46.965 327.912 47.312 327.64 47.63 326.792 48.62 326.3 49.24 326.3 49.24 325.913 49.571 325.869 50.154 326.201 50.541 326.533 50.928 327.116 50.973 327.503 50.641ZM296.674 30.141C296.674 30.141 297.221 28.521 298.222 26.043 299.221 23.571 300.639 20.235 302.923 16.986 304.242 15.11 305.839 13.271 307.718 11.58 309.432 10.037 311.365 8.593 313.642 7.464 314.135 7.241 314.354 6.65903 314.13 6.16603 313.906 5.67303 313.326 5.45401 312.833 5.67701 310.276 6.73001 308.024 8.09501 306.093 9.69801 303.979 11.45 302.258 13.472 300.822 15.505 298.378 18.965 296.737 22.487 295.874 25.195 295.003 27.926 294.864 29.785 294.864 29.785 294.765 30.285 295.091 30.77 295.592 30.868 296.091 30.966 296.577 30.641 296.674 30.141Z" clip-rule="evenodd"></path>
  <path fill="#000" fill-rule="evenodd" d="M288.49 30.742C288.49 30.742 289.031 29.1899 290.068 26.8449 291.099 24.5109 292.591 21.38 295.032 18.399 296.413 16.712 298.088 15.083 300.068 13.605 301.827 12.293 303.809 11.073 306.132 10.146 306.641 9.96397 306.908 9.402 306.725 8.892 306.542 8.382 305.982 8.11699 305.47 8.29899 302.877 9.12299 300.593 10.234 298.622 11.581 296.388 13.109 294.562 14.924 293.044 16.768 290.402 19.981 288.684 23.334 287.747 25.925 287.52 26.554 287.353 27.14 287.216 27.665 286.783 29.338 286.68 30.378 286.68 30.378 286.581 30.877 286.904 31.364 287.404 31.465 287.903 31.565 288.389 31.241 288.49 30.742ZM302.214 39.289C302.214 39.289 302.787 39.086 303.577 38.496 304.331 37.932 305.204 36.977 306.106 35.95 306.67 35.307 307.247 34.625 307.709 33.892 308.215 33.087 308.593 32.25 308.861 31.448 309.086 30.956 308.87 30.373 308.377 30.148 307.885 29.923 307.303 30.14 307.078 30.632 306.78 31.124 306.379 31.581 305.981 32.082 305.601 32.563 305.207 33.054 304.803 33.531 303.841 34.663 302.808 35.689 302.07 36.471 301.894 36.658 301.74 36.832 301.614 36.998 301.199 37.536 301.021 37.88 301.021 37.88 300.632 38.209 300.584 38.792 300.915 39.181 301.243 39.57 301.825 39.618 302.216 39.288L302.214 39.289ZM229.495 493.165C229.495 493.165 229.316 488.285 229.339 480.326 229.346 477.769 229.364 474.894 229.415 471.76 229.64 458.367 230.588 440.257 233.798 422.066 235.173 414.272 236.964 406.465 239.257 398.998 241.647 391.209 244.57 383.786 248.247 377.172 248.515 376.702 248.35 376.102 247.88 375.836 247.41 375.568 246.81 375.733 246.542 376.203 242.666 382.874 239.486 390.364 236.95 398.276 234.533 405.811 232.695 413.724 231.28 421.619 227.995 439.952 227.009 458.224 226.899 471.728 226.874 474.883 226.899 477.779 226.966 480.354 227.172 488.381 227.655 493.289 227.655 493.289 227.689 493.797 228.129 494.182 228.638 494.148 229.146 494.113 229.531 493.672 229.495 493.165ZM261.718 425.304C261.718 425.304 261.549 423.609 261.191 420.846 261.076 419.959 260.93 418.967 260.765 417.884 260.059 413.235 259.083 406.945 258.332 400.622 258.002 397.836 257.714 395.044 257.473 392.388 257.205 389.416 256.985 386.615 256.962 384.17 256.971 383.629 256.539 383.182 255.998 383.173 255.457 383.162 255.01 383.594 255.001 384.135 254.872 387.088 254.918 390.57 255.164 394.241 255.31 396.424 255.539 398.67 255.79 400.915 256.507 407.286 257.453 413.63 258.282 418.294 258.474 419.376 258.664 420.368 258.852 421.247 259.441 423.992 259.906 425.646 259.906 425.646 260 426.146 260.483 426.477 260.983 426.382 261.483 426.286 261.814 425.803 261.718 425.303V425.304ZM284.974 483.77C284.974 483.77 285.27 480.973 285.714 476.443 285.856 474.981 286.002 473.339 286.159 471.552 286.846 463.785 287.831 453.302 289.274 443.107 289.929 438.486 290.674 433.925 291.49 429.696 292.454 424.709 293.508 420.186 294.771 416.61 294.959 416.102 294.7 415.538 294.193 415.348 293.685 415.16 293.121 415.419 292.931 415.927 291.517 419.545 290.221 424.126 289.123 429.212 288.204 433.468 287.425 438.074 286.743 442.742 285.247 452.989 284.221 463.531 283.65 471.35 283.519 473.146 283.416 474.798 283.347 476.273 283.131 480.844 283.132 483.673 283.132 483.673 283.105 484.182 283.496 484.617 284.003 484.644 284.512 484.671 284.947 484.277 284.974 483.77ZM327.02 469.068C327.02 469.068 326.773 467.072 326.291 463.835 326.137 462.793 325.945 461.627 325.732 460.359 324.807 454.867 323.539 447.447 322.511 440.091 322.051 436.792 321.638 433.505 321.288 430.418 320.883 426.837 320.557 423.525 320.481 420.755 320.477 420.212 320.036 419.775 319.494 419.777 318.953 419.779 318.516 420.221 318.518 420.762 318.465 423.591 318.58 426.987 318.884 430.654 319.141 433.781 319.534 437.103 319.977 440.437 320.964 447.837 322.208 455.303 323.255 460.802 323.496 462.071 323.729 463.235 323.958 464.266 324.67 467.478 325.211 469.428 325.211 469.428 325.309 469.927 325.797 470.251 326.295 470.152 326.795 470.053 327.119 469.566 327.02 469.068ZM351.062 434.144C351.062 434.144 351.032 436.788 351.06 441.152 351.069 442.543 351.095 444.11 351.131 445.821 351.277 453.076 351.488 462.925 351.472 473.054 351.465 477.382 351.417 481.762 351.344 486.012 351.268 490.544 351.174 494.929 350.954 498.949 350.915 499.488 351.321 499.959 351.863 499.998 352.402 500.037 352.873 499.631 352.912 499.089 353.354 494.097 353.702 488.539 353.877 482.827 354.042 477.418 354.056 471.876 354.031 466.557 353.99 457.849 353.863 449.737 353.58 443.801 353.294 437.828 352.906 434.062 352.906 434.062 352.883 433.553 352.452 433.159 351.942 433.18 351.434 433.203 351.039 433.634 351.062 434.144ZM147.92 225.499C147.92 225.499 147.929 224.296 147.895 222.468 147.858 220.567 147.762 218.001 147.881 215.43 147.922 214.537 147.984 213.647 148.064 212.782 148.192 211.391 148.366 210.069 148.687 208.944 148.834 208.472 148.572 207.968 148.1 207.821 147.626 207.672 147.124 207.936 146.975 208.408 146.562 209.62 146.255 211.052 146.075 212.573 145.967 213.478 145.906 214.415 145.878 215.352 145.793 217.996 145.899 220.642 146.11 222.583 146.316 224.443 146.598 225.65 146.598 225.65 146.641 226.014 146.969 226.276 147.334 226.236 147.698 226.195 147.96 225.864 147.92 225.499ZM157.723 221.067C157.723 221.067 157.837 220.529 157.939 219.658 158.008 219.072 158.042 218.341 158.17 217.55 158.241 217.11 158.346 216.652 158.443 216.184 158.581 215.526 158.714 214.844 158.956 214.193 159.151 213.739 158.94 213.212 158.486 213.016 158.03 212.821 157.503 213.03 157.308 213.486 156.95 214.212 156.655 214.971 156.469 215.734 156.339 216.259 156.274 216.788 156.221 217.289 156.127 218.167 156.068 218.975 156.12 219.623 156.196 220.595 156.4 221.179 156.4 221.179 156.43 221.545 156.751 221.818 157.117 221.786 157.483 221.756 157.753 221.433 157.723 221.067ZM205.692 170.479C205.692 170.479 206.242 170.995 207.112 171.297 207.893 171.567 208.887 171.503 209.809 171.068 210.324 170.823 210.838 170.433 211.229 169.804 211.584 169.247 211.85 168.493 211.974 167.495 212.08 166.906 211.69 166.334 211.104 166.219 210.518 166.104 209.951 166.491 209.826 167.08 209.666 167.683 209.418 168.108 209.187 168.445 209.027 168.669 208.885 168.848 208.708 168.951 208.318 169.167 207.909 169.153 207.537 169.13 206.951 169.093 206.49 169.073 206.49 169.073 206.1 168.855 205.603 168.991 205.39 169.38 205.177 169.767 205.301 170.261 205.692 170.479ZM203.847 164.406C203.847 164.406 204.06 164.108 204.255 163.632 204.379 163.337 204.521 162.984 204.752 162.697 204.859 162.58 204.983 162.498 205.125 162.42 205.338 162.306 205.586 162.184 205.941 162.202 206.544 162.285 207.094 161.87 207.166 161.276 207.255 160.681 206.846 160.13 206.243 160.046 205.427 159.851 204.752 159.936 204.184 160.151 203.882 160.273 203.598 160.462 203.368 160.675 202.711 161.277 202.321 162.118 202.161 162.879 202.143 162.98 202.108 163.078 202.09 163.175 202.054 163.903 202.232 164.391 202.232 164.391 202.232 164.836 202.587 165.2 203.031 165.206 203.475 165.21 203.847 164.852 203.847 164.406ZM210.856 160.754C210.856 160.754 211.229 160.983 211.779 161.293 212.152 161.495 212.578 161.747 212.95 162.168 213.127 162.385 213.269 162.654 213.411 162.959 213.606 163.367 213.801 163.836 213.873 164.434 213.891 165.034 214.388 165.506 214.991 165.485 215.594 165.465 216.056 164.962 216.038 164.362 216.073 163.416 215.931 162.623 215.665 161.97 215.434 161.39 215.079 160.928 214.707 160.55 214.033 159.876 213.287 159.405 212.577 159.235 211.636 159.004 210.944 159.144 210.944 159.144 210.5 159.116 210.128 159.453 210.092 159.896 210.056 160.341 210.394 160.725 210.855 160.753L210.856 160.754Z" clip-rule="evenodd"></path>
</svg>
